<?xml version="1.0" standalone="no"?>
<!DOCTYPE svg PUBLIC "-//W3C//DTD SVG 20010904//EN"
 "http://www.w3.org/TR/2001/REC-SVG-20010904/DTD/svg10.dtd">
<svg version="1.0" xmlns="http://www.w3.org/2000/svg"
 width="700.000000pt" height="700.000000pt" viewBox="0 0 700.000000 700.000000"
 preserveAspectRatio="xMidYMid meet">
<metadata>
Created by potrace 1.14, written by Peter Selinger 2001-2017
</metadata>
<g transform="translate(0.000000,700.000000) scale(0.100000,-0.100000)"
fill="#000000" stroke="none">
<path d="M3811 6122 c-6 -2 -11 -8 -11 -12 0 -10 -99 -179 -156 -267 -19 -28
-34 -53 -34 -55 0 -2 -72 -123 -160 -268 -87 -146 -192 -320 -232 -388 -40
-68 -81 -135 -90 -150 -10 -15 -21 -34 -25 -42 -3 -8 -18 -33 -32 -55 -14 -22
-28 -45 -31 -50 -3 -6 -81 -136 -173 -290 -93 -154 -173 -287 -178 -295 -4 -8
-27 -46 -50 -85 -23 -38 -50 -83 -59 -100 -10 -16 -40 -67 -67 -111 -28 -45
-52 -85 -54 -90 -2 -5 -102 -173 -223 -373 -151 -252 -220 -374 -223 -401 -4
-27 1 -52 16 -83 39 -80 15 -77 635 -77 l546 0 -4 -22 c-3 -13 -10 -59 -16
-103 -16 -111 -21 -146 -25 -175 -2 -14 -7 -47 -11 -75 -3 -27 -8 -59 -10 -70
-2 -11 -6 -38 -9 -60 -11 -77 -14 -100 -18 -120 -3 -11 -10 -63 -17 -115 -7
-52 -14 -103 -16 -113 -1 -10 -10 -68 -19 -130 -8 -62 -17 -123 -20 -137 -3
-14 -8 -50 -11 -80 -3 -30 -7 -58 -10 -61 -2 -3 -6 -32 -10 -64 -3 -32 -8 -67
-10 -78 -2 -11 -8 -55 -14 -96 -6 -42 -12 -87 -15 -101 -7 -42 -15 -103 -21
-145 -3 -22 -11 -83 -19 -135 -7 -52 -16 -113 -20 -135 l-5 -41 149 0 149 0
116 195 c63 108 119 201 123 207 8 10 16 24 53 88 9 17 51 87 92 156 41 69
175 294 298 500 122 206 246 413 274 460 28 47 56 93 61 102 15 26 147 248
260 438 54 91 106 179 115 195 10 17 40 67 69 113 28 46 51 85 51 86 0 1 43
73 95 160 52 87 95 160 95 162 0 3 18 32 40 64 60 92 68 151 26 215 -41 62
-17 60 -613 60 -355 0 -543 3 -544 10 -1 6 -1 13 -1 16 7 55 14 107 17 119 2
8 7 39 10 69 4 30 8 61 10 70 6 34 15 98 20 141 3 25 9 70 15 100 5 30 12 75
15 100 10 69 15 110 25 175 5 33 12 80 15 105 6 44 11 81 20 130 2 14 7 45 10
70 3 25 7 56 10 70 3 14 7 43 10 65 3 22 7 51 10 64 2 13 7 49 10 80 4 31 8
63 10 71 2 8 7 35 10 60 3 25 10 72 15 105 5 33 12 80 15 105 3 25 15 105 26
179 11 73 17 136 14 139 -6 7 -276 10 -294 4z"/>
</g>
</svg>
