<svg xmlns="http://www.w3.org/2000/svg">
   <symbol id="bot-telegram" viewBox="0 0 512 512">
      <rect
      width="512" height="512"
      rx="15%"
      fill="#37aee2"/><path fill="#c8daea" d="M199 404c-11 0-10-4-13-14l-32-105 245-144"/><path fill="#a9c9dd" d="M199 404c7 0 11-4 16-8l45-43-56-34"/><path fill="#f6fbfe" d="M204 319l135 99c14 9 26 4 30-14l55-258c5-22-9-32-24-25L79 245c-21 8-21 21-4 26l83 26 190-121c9-5 17-3 11 4"/>
   </symbol>
   <symbol id="bot-viber" viewBox="0 0 455.731 455.731">
      <g>
         <rect x="0" y="0" style="fill:#7D3DAF;" width="512" height="512"/>
         <g>
            <path style="fill:#FFFFFF;" d="M371.996,146.901l-0.09-0.36c-7.28-29.43-40.1-61.01-70.24-67.58l-0.34-0.07
               c-48.75-9.3-98.18-9.3-146.92,0l-0.35,0.07c-30.13,6.57-62.95,38.15-70.24,67.58l-0.08,0.36c-9,41.1-9,82.78,0,123.88l0.08,0.36
               c6.979,28.174,37.355,58.303,66.37,66.589v32.852c0,11.89,14.49,17.73,22.73,9.15l33.285-34.599
               c7.219,0.404,14.442,0.629,21.665,0.629c24.54,0,49.09-2.32,73.46-6.97l0.34-0.07c30.14-6.57,62.96-38.15,70.24-67.58l0.09-0.36
               C380.996,229.681,380.996,188.001,371.996,146.901z M345.656,264.821c-4.86,19.2-29.78,43.07-49.58,47.48
               c-25.921,4.929-52.047,7.036-78.147,6.313c-0.519-0.014-1.018,0.187-1.38,0.559c-3.704,3.802-24.303,24.948-24.303,24.948
               l-25.85,26.53c-1.89,1.97-5.21,0.63-5.21-2.09v-54.422c0-0.899-0.642-1.663-1.525-1.836c-0.005-0.001-0.01-0.002-0.015-0.003
               c-19.8-4.41-44.71-28.28-49.58-47.48c-8.1-37.15-8.1-74.81,0-111.96c4.87-19.2,29.78-43.07,49.58-47.48
               c45.27-8.61,91.17-8.61,136.43,0c19.81,4.41,44.72,28.28,49.58,47.48C353.765,190.011,353.765,227.671,345.656,264.821z"/>
            <path style="fill:#FFFFFF;" d="M270.937,289.942c-3.044-0.924-5.945-1.545-8.639-2.663
               c-27.916-11.582-53.608-26.524-73.959-49.429c-11.573-13.025-20.631-27.73-28.288-43.292c-3.631-7.38-6.691-15.049-9.81-22.668
               c-2.844-6.948,1.345-14.126,5.756-19.361c4.139-4.913,9.465-8.673,15.233-11.444c4.502-2.163,8.943-0.916,12.231,2.9
               c7.108,8.25,13.637,16.922,18.924,26.485c3.251,5.882,2.359,13.072-3.533,17.075c-1.432,0.973-2.737,2.115-4.071,3.214
               c-1.17,0.963-2.271,1.936-3.073,3.24c-1.466,2.386-1.536,5.2-0.592,7.794c7.266,19.968,19.513,35.495,39.611,43.858
               c3.216,1.338,6.446,2.896,10.151,2.464c6.205-0.725,8.214-7.531,12.562-11.087c4.25-3.475,9.681-3.521,14.259-0.624
               c4.579,2.898,9.018,6.009,13.43,9.153c4.331,3.086,8.643,6.105,12.638,9.623c3.841,3.383,5.164,7.821,3.001,12.412
               c-3.96,8.408-9.722,15.403-18.034,19.868C276.387,288.719,273.584,289.127,270.937,289.942
               C267.893,289.017,273.584,289.127,270.937,289.942z"/>
            <path style="fill:#FFFFFF;" d="M227.942,131.471c36.515,1.023,66.506,25.256,72.933,61.356c1.095,6.151,1.485,12.44,1.972,18.683
               c0.205,2.626-1.282,5.121-4.116,5.155c-2.927,0.035-4.244-2.414-4.434-5.039c-0.376-5.196-0.637-10.415-1.353-15.568
               c-3.78-27.201-25.47-49.705-52.545-54.534c-4.074-0.727-8.244-0.918-12.371-1.351c-2.609-0.274-6.026-0.432-6.604-3.675
               c-0.485-2.719,1.81-4.884,4.399-5.023C226.527,131.436,227.235,131.468,227.942,131.471
               C264.457,132.494,227.235,131.468,227.942,131.471z"/>
            <path style="fill:#FFFFFF;" d="M283.434,203.407c-0.06,0.456-0.092,1.528-0.359,2.538c-0.969,3.666-6.527,4.125-7.807,0.425
               c-0.379-1.098-0.436-2.347-0.438-3.529c-0.013-7.734-1.694-15.46-5.594-22.189c-4.009-6.916-10.134-12.73-17.318-16.248
               c-4.344-2.127-9.042-3.449-13.803-4.237c-2.081-0.344-4.184-0.553-6.275-0.844c-2.534-0.352-3.887-1.967-3.767-4.464
               c0.112-2.34,1.822-4.023,4.372-3.879c8.38,0.476,16.474,2.287,23.924,6.232c15.15,8.023,23.804,20.687,26.33,37.597
               c0.114,0.766,0.298,1.525,0.356,2.294C283.198,199.002,283.288,200.903,283.434,203.407
               C283.374,203.863,283.288,200.903,283.434,203.407z"/>
            <path style="fill:#FFFFFF;" d="M260.722,202.523c-3.055,0.055-4.69-1.636-5.005-4.437c-0.219-1.953-0.392-3.932-0.858-5.832
               c-0.918-3.742-2.907-7.21-6.055-9.503c-1.486-1.083-3.17-1.872-4.934-2.381c-2.241-0.647-4.568-0.469-6.804-1.017
               c-2.428-0.595-3.771-2.561-3.389-4.839c0.347-2.073,2.364-3.691,4.629-3.527c14.157,1.022,24.275,8.341,25.719,25.007
               c0.102,1.176,0.222,2.419-0.039,3.544C263.539,201.464,262.113,202.429,260.722,202.523
               C257.667,202.578,262.113,202.429,260.722,202.523z"/>
         </g>
      </g>
   </symbol>
   <symbol id="bot-mess" viewBox="0 0 512 512">
      <path fill="#0084ff" d="M512 0H0v512h512z"/><path d="M257 93c-88.918 0-161 67.157-161 150 0 47.205 23.412 89.311 60 116.807V417l54.819-30.273C225.449 390.801 240.948 393 257 393c88.918 0 161-67.157 161-150S345.918 93 257 93zm16 202l-41-44-80 44 88-94 42 44 79-44-88 94z" fill="#fff"/>
   </symbol>
   <symbol id="bot-what" viewBox="0 0 455.731 455.731">
      <g>
         <rect x="0" y="0" style="fill:#1BD741;" width="455.731" height="455.731"/>
         <g>
            <path style="fill:#FFFFFF;" d="M68.494,387.41l22.323-79.284c-14.355-24.387-21.913-52.134-21.913-80.638
               c0-87.765,71.402-159.167,159.167-159.167s159.166,71.402,159.166,159.167c0,87.765-71.401,159.167-159.166,159.167
               c-27.347,0-54.125-7-77.814-20.292L68.494,387.41z M154.437,337.406l4.872,2.975c20.654,12.609,44.432,19.274,68.762,19.274
               c72.877,0,132.166-59.29,132.166-132.167S300.948,95.321,228.071,95.321S95.904,154.611,95.904,227.488
               c0,25.393,7.217,50.052,20.869,71.311l3.281,5.109l-12.855,45.658L154.437,337.406z"/>
            <path style="fill:#FFFFFF;" d="M183.359,153.407l-10.328-0.563c-3.244-0.177-6.426,0.907-8.878,3.037
               c-5.007,4.348-13.013,12.754-15.472,23.708c-3.667,16.333,2,36.333,16.667,56.333c14.667,20,42,52,90.333,65.667
               c15.575,4.404,27.827,1.435,37.28-4.612c7.487-4.789,12.648-12.476,14.508-21.166l1.649-7.702c0.524-2.448-0.719-4.932-2.993-5.98
               l-34.905-16.089c-2.266-1.044-4.953-0.384-6.477,1.591l-13.703,17.764c-1.035,1.342-2.807,1.874-4.407,1.312
               c-9.384-3.298-40.818-16.463-58.066-49.687c-0.748-1.441-0.562-3.19,0.499-4.419l13.096-15.15
               c1.338-1.547,1.676-3.722,0.872-5.602l-15.046-35.201C187.187,154.774,185.392,153.518,183.359,153.407z"/>
         </g>
      </g>
   </symbol>
   <symbol id="chanel-telegram" viewBox="0 0 34 34">
      <rect width="34" height="34" rx="8" fill="#CED0FF"></rect>
      <path fill-rule="evenodd" clip-rule="evenodd" d="M24.353 8.94988L6.61533 15.6299C6.47229 15.6907 6.35126 15.7938 6.26847 15.9253C6.18568 16.0569 6.1451 16.2106 6.15215 16.3658C6.15921 16.5211 6.21358 16.6705 6.30796 16.794C6.40234 16.9175 6.53222 17.0091 6.68019 17.0567L10.9949 18.2621L10.9932 18.2564L21.2078 12.0304C21.2382 12.0131 21.2738 12.0072 21.3081 12.0139C21.3424 12.0207 21.3732 12.0395 21.3948 12.067C21.4164 12.0945 21.4274 12.1289 21.4258 12.1638C21.4242 12.1988 21.4101 12.232 21.3861 12.2574L13.72 19.4048L14.8845 20.3447L13.7169 19.4077L13.1494 24.1421C13.3163 24.2014 13.4967 24.2116 13.6691 24.1714C13.8416 24.1311 13.9989 24.0422 14.1222 23.9151L16.3399 21.5194L20.4131 24.8068C20.5725 24.9402 20.7638 25.0298 20.9682 25.067C21.1727 25.1042 21.3833 25.0877 21.5794 25.0191C21.7755 24.9504 21.9505 24.832 22.0871 24.6754C22.2237 24.5189 22.3173 24.3295 22.3588 24.1258L25.1475 9.63086C25.1684 9.52637 25.1611 9.4182 25.1263 9.31747C25.0916 9.21675 25.0306 9.1271 24.9497 9.05775C24.8688 8.98841 24.7708 8.94186 24.666 8.9229C24.5611 8.90394 24.4531 8.91326 24.353 8.94988Z" fill="#3E4292"></path>
   </symbol>
   <symbol id="chanel-viber" viewBox="0 0 37 34">
      <rect width="34" height="34" rx="8" fill="#CED0FF"></rect>
      <path fill-rule="evenodd" clip-rule="evenodd" d="M16.537 8.90033L16.7585 8.96242H17.2649C17.8409 9.05695 18.4114 9.1813 18.9739 9.33497C19.717 9.51662 20.4306 9.79873 21.0944 10.1732C21.7316 10.5281 22.3082 10.9785 22.8035 11.5082C23.3098 12.0977 23.7256 12.7566 24.0378 13.4641C24.3006 14.128 24.5018 14.8138 24.6391 15.5131C24.749 16.003 24.8125 16.5019 24.829 17.0033C24.8185 17.1307 24.8403 17.2587 24.8923 17.3758C24.9106 17.4481 24.9505 17.5133 25.0069 17.5632C25.0633 17.613 25.1336 17.645 25.2088 17.6553H25.4937C25.5648 17.6434 25.6304 17.6101 25.6815 17.5601C25.7325 17.51 25.7664 17.4456 25.7785 17.3758C25.814 17.2973 25.8355 17.2132 25.8418 17.1275C25.8418 17.0249 25.8322 16.9318 25.8236 16.8481L25.8236 16.848C25.8165 16.7797 25.8101 16.7176 25.8101 16.6618C25.8084 16.1213 25.766 15.5818 25.6835 15.0474C25.5026 14.2141 25.2043 13.4096 24.7974 12.6569C24.2317 11.6682 23.4924 10.7854 22.6136 10.049C21.7722 9.33763 20.8074 8.7803 19.7652 8.40359C18.9674 8.14916 18.1353 8.01313 17.2966 8H16.7902C16.7009 8.00048 16.6138 8.02741 16.5404 8.07727C16.467 8.12713 16.4106 8.19759 16.3787 8.27941C16.3397 8.37859 16.3183 8.4836 16.3154 8.58987C16.317 8.65729 16.3388 8.72276 16.3783 8.77801C16.4177 8.83326 16.4729 8.87582 16.537 8.90033ZM22.5185 16.3203C22.4501 15.6332 22.3015 14.9561 22.0754 14.3024C21.9306 13.853 21.7056 13.4325 21.4108 13.0605C21.1085 12.6607 20.7193 12.332 20.2714 12.0981C19.7353 11.804 19.1601 11.5846 18.5623 11.4461C18.4495 11.424 18.3406 11.3979 18.2329 11.3721C18.0386 11.3255 17.8481 11.2798 17.6445 11.2599C17.5217 11.2626 17.4008 11.2303 17.2964 11.1667C17.2187 11.1399 17.152 11.0891 17.1064 11.0219C17.0607 10.9547 17.0385 10.8748 17.0432 10.7942C17.0382 10.7 17.0489 10.6056 17.0748 10.5148C17.1046 10.4377 17.1561 10.3704 17.2234 10.321C17.2906 10.2715 17.3708 10.2418 17.4546 10.2354H17.7711L18.7522 10.3906C19.733 10.6075 20.6454 11.055 21.4108 11.6945C22.0537 12.2202 22.5721 12.8771 22.9299 13.6194C23.2369 14.1867 23.4202 14.8105 23.4679 15.4511V16.4445C23.4618 16.5362 23.424 16.6231 23.3607 16.6909C23.2974 16.7586 23.2124 16.8031 23.1198 16.8171H22.8666C22.7975 16.8034 22.7328 16.7737 22.6777 16.7305C22.6227 16.6873 22.5789 16.6318 22.5501 16.5687C22.5241 16.4885 22.5133 16.4043 22.5185 16.3203ZM18.4992 12.5641C18.854 12.5507 19.2053 12.6369 19.512 12.8125C20.2044 13.1723 20.7513 13.7526 21.0628 14.4579C21.2363 14.8483 21.3018 15.2766 21.2527 15.6997C21.221 15.7308 21.221 15.7308 21.221 15.7618C21.2104 15.823 21.1865 15.8812 21.151 15.9325C21.1155 15.9839 21.0693 16.0272 21.0153 16.0596C20.9613 16.0919 20.9009 16.1126 20.8381 16.1201C20.7754 16.1277 20.7117 16.1219 20.6513 16.1033C20.5915 16.099 20.5339 16.0795 20.484 16.0469C20.434 16.0143 20.3936 15.9695 20.3665 15.917C20.3068 15.8355 20.2737 15.738 20.2715 15.6376L20.1766 15.0788C20.0915 14.7871 19.952 14.5134 19.7652 14.2716C19.5261 14.0038 19.221 13.8008 18.879 13.6817C18.6778 13.5973 18.4641 13.5449 18.246 13.5265L17.9612 13.4334C17.8798 13.405 17.812 13.348 17.7711 13.2735C17.7302 13.1989 17.7189 13.112 17.7396 13.0298C17.7447 12.9181 17.7882 12.8113 17.8628 12.7268C17.9375 12.6423 18.039 12.5849 18.1511 12.5641H18.4992ZM10.1439 18.1522C9.31891 17.0001 8.58868 15.7855 7.9601 14.5198C7.70691 13.992 7.48536 13.4332 7.26382 12.8744C7.05449 12.3624 6.96787 11.81 7.01063 11.26C7.05486 10.6482 7.28652 10.0638 7.67525 9.5835C8.07789 9.15477 8.56158 8.80681 9.09946 8.55898C9.2997 8.45933 9.51256 8.38626 9.73244 8.34167C10.0075 8.24732 10.3037 8.22927 10.5885 8.28953C10.8733 8.34979 11.1356 8.486 11.3465 8.68317C11.738 9.04646 12.0979 9.44108 12.4226 9.86292C12.9401 10.4588 13.3959 11.1035 13.7835 11.7878C13.9462 12.0544 14.0839 12.335 14.195 12.626C14.2885 12.8585 14.3083 13.1132 14.2518 13.357C14.1954 13.6007 14.0652 13.822 13.8785 13.992C13.7142 14.1633 13.5341 14.3192 13.3404 14.4577C13.1562 14.5461 12.994 14.6733 12.8657 14.8303C12.6919 15.0092 12.5661 15.2277 12.4998 15.4662C12.4335 15.7046 12.4288 15.9555 12.4859 16.1963C12.5218 16.4679 12.6076 16.7308 12.7391 16.9724C13.2126 17.9947 13.8907 18.9132 14.733 19.6734C15.412 20.2879 16.1798 20.8006 17.0117 21.1947L17.3915 21.3809C17.5599 21.4701 17.7414 21.533 17.9296 21.5672C18.1842 21.6195 18.4488 21.5974 18.6907 21.5036C18.9326 21.4097 19.1411 21.2484 19.2905 21.0394C19.3538 20.9773 19.4091 20.8997 19.4645 20.8221C19.5199 20.7445 19.5753 20.6669 19.6386 20.6048C19.8212 20.3781 20.0469 20.1883 20.3032 20.046C20.6683 19.8428 21.0997 19.7871 21.5059 19.8907C21.8619 19.9903 22.2025 20.1364 22.5187 20.3254L22.5187 20.3254C23.2466 20.8221 23.9745 21.3188 24.6708 21.8777L25.3354 22.3744C25.5386 22.5638 25.7096 22.7839 25.8418 23.0264C25.9463 23.2172 26.0007 23.4306 26.0001 23.6473C25.991 23.963 25.9041 24.2719 25.7469 24.5476C25.4928 25.0564 25.1377 25.5103 24.7024 25.8826C24.3975 26.1845 24.0448 26.4362 23.658 26.6277C23.2306 26.8587 22.7532 26.9864 22.2655 27.0002H22.1072C21.5896 26.89 21.0894 26.7125 20.6197 26.4724C19.5372 26.0086 18.4901 25.4691 17.4865 24.8581C16.2872 24.1502 15.1539 23.3399 14.1 22.4365C13.6236 22.0472 13.1693 21.6327 12.7391 21.1947C11.781 20.2605 10.9123 19.242 10.1439 18.1522Z" fill="#3E4292"></path>
   </symbol>
   <symbol id="chanel-facebook" viewBox="0 0 37 37">
      <rect width="37" height="37" rx="8" fill="#CED0FF"></rect>
      <path d="M19.3333 22.525H22.6667L24 17.125H19.3333V14.425C19.3333 13.0345 19.3333 11.725 22 11.725H24V7.189C23.5653 7.13095 21.924 7 20.1907 7C16.5707 7 14 9.23695 14 13.345V17.125H10V22.525H14V34H19.3333V22.525Z" fill="#3E4292"></path>
   </symbol>
   <symbol id="chanel-uz" viewBox="0 0 34 34">
      <rect width="34" height="34" rx="8" fill="#CED0FF"></rect>
      <path d="M21.3174 13.1801C22.471 13.1801 23.0264 13.6301 23.0264 14.23C23.0264 14.8299 22.471 15.2798 21.3174 15.2798H20.1851L18.7752 18.2579H21.5097C22.7487 18.2579 23.2614 18.6864 23.2614 19.2863C23.2614 19.8862 22.7274 20.3147 21.5097 20.3147H17.7711L16.0621 23.8712H21.0824C25.0346 23.8712 27 22.1572 27 19.9076C27 18.4721 26.295 17.1652 25.1414 16.501C26.1882 15.8154 26.8718 14.787 26.8718 13.5872C26.8718 11.1448 24.7782 9.64502 21.4456 9.64502H16.4252L13.2208 16.3725L10.0163 9.64502H6L11.1699 20.6146L9.63174 23.8712H13.5839L18.6897 13.1801H21.3174Z" fill="#3E4292"></path>
   </symbol>
</svg>