<svg viewBox="102.047 2367.544 45.355 45.355" height="45" width="45" xmlns="http://www.w3.org/2000/svg">
  <path fill="#e52823" d="m 110.551,163.244 c 0,-9.393 -7.615,-17.008 -17.008,-17.008 -9.393,0 -17.008,7.615 -17.008,17.008 0,9.393 7.615,17.008 17.008,17.008 9.393,0 17.008,-7.615 17.008,-17.008" transform="matrix(1.333333, 0, 0, -1.333333, 0, 2607.879883)"></path>
  <path fill="#ffffff" d="M 123.88 2388.316 L 119.597 2394.865 L 118.545 2394.865 L 114.261 2388.316 L 114.261 2398.072 L 111.17 2398.072 L 111.17 2382.042 L 113.461 2382.042 L 119.072 2390.309 L 124.682 2382.042 L 126.972 2382.042 L 126.972 2398.072 L 123.88 2398.072 L 123.88 2388.316 Z"></path>
  <path fill="#ffffff" d="M 131.196 2395.782 L 133.784 2395.782 L 133.784 2385.316 L 130.738 2386.576 L 130.738 2384.103 L 136.76 2381.698 L 136.76 2395.782 L 139.258 2395.782 L 139.258 2398.072 L 131.196 2398.072 L 131.196 2395.782 Z"></path>
</svg>
