<svg viewBox="102.047 2367.544 45.355 45.355" height="45" width="45" xmlns="http://www.w3.org/2000/svg">
  <path fill="#4081cb" d="m 110.551,163.244 c 0,-9.393 -7.615,-17.008 -17.008,-17.008 -9.393,0 -17.008,7.615 -17.008,17.008 0,9.393 7.615,17.008 17.008,17.008 9.393,0 17.008,-7.615 17.008,-17.008" transform="matrix(1.333333, 0, 0, -1.333333, 0, 2607.879883)"></path>
  <path id="path2418" style="fill:#ffffff;fill-opacity:1;fill-rule:nonzero;stroke:none" d="M 123.429 2387.655 L 119.147 2394.205 L 118.094 2394.205 L 113.811 2387.655 L 113.811 2397.411 L 110.719 2397.411 L 110.719 2381.381 L 113.01 2381.381 L 118.62 2389.649 L 124.231 2381.381 L 126.521 2381.381 L 126.521 2397.411 L 123.429 2397.411 L 123.429 2387.655 Z"></path>
  <path id="path2420" style="fill:#ffffff;fill-opacity:1;fill-rule:nonzero;stroke:none" d="M 135.823 2388.274 C 136.282 2387.816 136.465 2387.152 136.465 2386.419 C 136.465 2384.884 135.571 2383.808 134.266 2383.808 C 132.983 2383.808 132.09 2384.884 132.09 2386.419 L 128.999 2386.419 C 128.999 2383.282 131.129 2381.152 134.266 2381.152 C 137.426 2381.152 139.555 2383.282 139.555 2386.419 C 139.555 2388.022 138.754 2389.304 137.77 2390.29 L 133.145 2394.892 L 139.555 2394.892 L 139.555 2397.411 L 129.069 2397.411 L 129.069 2395.007 L 135.823 2388.274 Z"></path>
</svg>
