<svg viewBox="102.047 2367.544 45.355 45.355" height="45" width="45" xmlns="http://www.w3.org/2000/svg">
  <path fill="#40ba57" d="m 110.551,163.244 c 0,-9.393 -7.615,-17.008 -17.008,-17.008 -9.393,0 -17.008,7.615 -17.008,17.008 0,9.393 7.615,17.008 17.008,17.008 9.393,0 17.008,-7.615 17.008,-17.008" transform="matrix(1.333333, 0, 0, -1.333333, 0, 2607.879883)"></path>
  <path id="path2430" style="fill:#ffffff;fill-opacity:1;fill-rule:nonzero;stroke:none" d="M 122.934 2388.263 L 118.651 2394.812 L 117.598 2394.812 L 113.315 2388.263 L 113.315 2398.018 L 110.223 2398.018 L 110.223 2381.988 L 112.514 2381.988 L 118.124 2390.255 L 123.735 2381.988 L 126.026 2381.988 L 126.026 2398.018 L 122.934 2398.018 L 122.934 2388.263 Z"></path>
  <path id="path2432" style="fill:#ffffff;fill-opacity:1;fill-rule:nonzero;stroke:none" d="M 129.098 2381.988 L 138.465 2381.988 L 138.465 2382.789 L 135.51 2387.896 C 137.754 2388.628 139.197 2390.576 139.197 2393.003 C 139.197 2396.003 137.022 2398.224 133.816 2398.224 C 130.633 2398.224 128.458 2396.14 128.458 2393.095 L 131.526 2393.095 C 131.526 2394.56 132.488 2395.591 133.862 2395.591 C 135.19 2395.591 136.105 2394.423 136.105 2392.98 C 136.105 2391.468 134.938 2390.209 133.289 2390.209 L 131.366 2390.209 L 131.366 2389.293 L 134 2384.507 L 129.098 2384.507 L 129.098 2381.988 Z"></path>
</svg>
