<svg viewBox="782.629 2385.155 17.371 18.055" width="17.371" height="18.055" xmlns="http://www.w3.org/2000/svg">
  <rect x="782.629" y="2385.155" width="17.371" height="18.055" fill="rgb(128, 211, 195)" rx="3.166" ry="3.166"></rect>
  <path fill="#ffffff" d="M 788.752 2398.69 L 787.24 2398.69 L 787.24 2390.738 L 784.783 2390.738 L 784.783 2389.49 L 791.21 2389.49 L 791.21 2390.738 L 788.752 2390.738 L 788.752 2398.69 Z"></path>
  <path id="path3118" style="fill:#ffffff;fill-opacity:1;fill-rule:nonzero;stroke:none" d="M 792.402 2389.49 L 797.621 2389.49 L 797.621 2389.91 L 795.807 2392.934 C 797.186 2393.301 798.067 2394.431 798.067 2395.865 C 798.067 2397.561 796.845 2398.795 795.043 2398.795 C 793.243 2398.795 792.022 2397.638 792.022 2395.93 L 793.533 2395.93 C 793.533 2396.851 794.163 2397.494 795.057 2397.494 C 795.938 2397.494 796.543 2396.785 796.543 2395.851 C 796.543 2394.879 795.794 2394.103 794.729 2394.103 L 793.743 2394.103 L 793.743 2393.643 L 795.426 2390.739 L 792.402 2390.739 L 792.402 2389.49 Z"></path>
</svg>