<svg viewBox="782.629 2385.155 17.371 18.055" width="17.371" height="18.055" xmlns="http://www.w3.org/2000/svg">
  <rect x="782.629" y="2385.155" width="17.371" height="18.055" fill="rgb(128, 211, 195)" rx="3.166" ry="3.166"></rect>
  <path fill="#ffffff" d="M 788.752 2398.69 L 787.24 2398.69 L 787.24 2390.738 L 784.783 2390.738 L 784.783 2389.49 L 791.21 2389.49 L 791.21 2390.738 L 788.752 2390.738 L 788.752 2398.69 Z"></path>
  <path id="path3100" style="fill:#ffffff;fill-opacity:1;fill-rule:nonzero;stroke:none" d="M 795.173 2398.809 C 793.411 2398.809 792.215 2397.638 792.215 2395.93 L 793.674 2395.93 C 793.674 2396.85 794.293 2397.494 795.173 2397.494 C 796.027 2397.494 796.618 2396.81 796.618 2395.825 C 796.618 2394.734 795.934 2393.998 794.923 2393.998 C 794.397 2393.998 793.95 2394.182 793.674 2394.485 L 792.597 2394.142 L 793.122 2389.49 L 797.433 2389.49 L 797.433 2390.738 L 794.423 2390.738 L 794.174 2392.841 C 794.397 2392.749 794.726 2392.697 795.015 2392.697 C 796.881 2392.697 798.143 2393.958 798.143 2395.825 C 798.143 2397.599 796.947 2398.809 795.173 2398.809"></path>
</svg>